<?xml version="1.0" encoding="UTF-8"?>
<svg version="1.1" xmlns="http://www.w3.org/2000/svg" width="204" height="181">
<path d="M0 0 C17.59739645 13.83350888 27.57044747 31.01201796 30.59188843 53.12506104 C31.23287792 59.05161357 31.30533101 64.93415892 31.30078125 70.890625 C31.30506638 72.161409 31.3093515 73.43219299 31.31376648 74.7414856 C31.31946305 77.40202067 31.32099955 80.0621615 31.31567383 82.72265625 C31.30983984 86.11158797 31.32694653 89.49998009 31.3500185 92.88882256 C31.36835802 96.16025224 31.36457041 99.43165322 31.36328125 102.703125 C31.372491 103.90846893 31.38170074 105.11381287 31.39118958 106.35568237 C31.34201809 115.319043 30.0742444 122.88969396 24 129.8984375 C16.57333028 134.99704 9.79515145 135.58401262 0.9921875 135.38671875 C-0.81776199 135.37610664 -0.81776199 135.37610664 -2.66427612 135.36528015 C-6.48517146 135.33748704 -10.3045541 135.27477219 -14.125 135.2109375 C-16.72914537 135.18583535 -19.33331392 135.16302557 -21.9375 135.14257812 C-28.29217516 135.08770963 -34.64597947 135.00423389 -41 134.8984375 C-41.09964557 128.97604149 -41.17183264 123.05414456 -41.21972656 117.13110352 C-41.23971393 115.12060026 -41.26691326 113.11015417 -41.30175781 111.09985352 C-41.52953705 97.61063302 -41.68926501 85.6764964 -32.765625 74.6796875 C-26.00737912 67.86163414 -17.48937803 63.86674138 -8 62.8984375 C-8 61.5784375 -8 60.2584375 -8 58.8984375 C-8.73863281 58.76308594 -9.47726563 58.62773438 -10.23828125 58.48828125 C-21.17035626 56.16851438 -29.97045031 51.60947107 -36.5625 42.37109375 C-39.76479297 36.86280177 -42 31.29373129 -42 24.8984375 C-43.975925 24.92807978 -43.975925 24.92807978 -46 25.8984375 C-47.12137704 28.60515827 -47.12137704 28.60515827 -47.8125 31.8984375 C-50.71044392 42.16479699 -56.86254932 49.41182038 -66 54.8984375 C-76.52777553 59.17982776 -88.12067765 58.23872305 -99.25 58.0859375 C-101.17056239 58.07085964 -103.09113627 58.05717674 -105.01171875 58.04492188 C-109.67476725 58.0121707 -114.3372541 57.96056072 -119 57.8984375 C-119.01614876 56.47415893 -119.02760056 55.04982666 -119.03710938 53.62548828 C-119.0439978 52.83232208 -119.05088623 52.03915588 -119.0579834 51.22195435 C-118.62803104 33.99285821 -107.40614836 17.07991672 -95.546875 5.50390625 C-69.0781326 -17.75530301 -28.92832177 -20.26489208 0 0 Z " fill="#6170FD" transform="translate(142,25.1015625)"/>
<path d="M0 0 C5.19204352 -0.04996785 10.38394269 -0.08598438 15.57617188 -0.10986328 C17.33726443 -0.11983294 19.09834083 -0.13341356 20.859375 -0.15087891 C51.29701725 -0.44487886 51.29701725 -0.44487886 61.6875 9.1875 C67.40902807 15.26253209 71.13715544 22.1726636 71.11352539 30.58496094 C71.11341209 31.93590851 71.11341209 31.93590851 71.11329651 33.31414795 C71.10813522 34.27782288 71.10297394 35.2414978 71.09765625 36.234375 C71.0962413 37.22753723 71.09482635 38.22069946 71.09336853 39.24395752 C71.08777588 42.41266912 71.0752247 45.58130979 71.0625 48.75 C71.05748405 50.89973856 71.05292131 53.04947823 71.04882812 55.19921875 C71.03780886 60.46616999 71.021078 65.73307993 71 71 C63.31375473 71.1017053 55.62768405 71.17159403 47.94091797 71.21972656 C45.32789627 71.23979933 42.71491925 71.26706358 40.10205078 71.30175781 C36.33875478 71.35046435 32.57605451 71.37301311 28.8125 71.390625 C27.65073242 71.41127014 26.48896484 71.43191528 25.29199219 71.45318604 C17.49045147 71.45532775 12.05409926 70.49842156 5.9765625 65.25390625 C5.53054687 64.69574219 5.08453125 64.13757813 4.625 63.5625 C4.16351562 63.00691406 3.70203125 62.45132813 3.2265625 61.87890625 C0.56201707 57.79722997 -0.24930044 54.22284545 -0.22705078 49.38354492 C-0.22689972 48.28278122 -0.22674866 47.18201752 -0.22659302 46.04789734 C-0.21110916 44.28202019 -0.21110916 44.28202019 -0.1953125 42.48046875 C-0.1924826 41.26676102 -0.18965271 40.05305328 -0.18673706 38.80256653 C-0.17555308 34.93077689 -0.1504513 31.05921959 -0.125 27.1875 C-0.11496792 24.56055022 -0.10584246 21.93359681 -0.09765625 19.30664062 C-0.07561954 12.87101464 -0.04215941 6.43552392 0 0 Z " fill="#6171FC" transform="translate(23,89)"/>
<path d="M0 0 C0.66 0 1.32 0 2 0 C3.56360493 9.41471344 4.3080731 18.445826 4.30078125 27.9921875 C4.30506638 29.2629715 4.3093515 30.53375549 4.31376648 31.8430481 C4.31946305 34.50358317 4.32099955 37.163724 4.31567383 39.82421875 C4.30983984 43.21315047 4.32694653 46.60154259 4.3500185 49.99038506 C4.36835802 53.26181474 4.36457041 56.53321572 4.36328125 59.8046875 C4.372491 61.01003143 4.38170074 62.21537537 4.39118958 63.45724487 C4.3409293 72.61907995 2.93462505 79.66899259 -3 87 C-5.75 88.375 -5.75 88.375 -8 89 C-7.67 87.35 -7.34 85.7 -7 84 C-6.34 84 -5.68 84 -5 84 C-4.34 82.68 -3.68 81.36 -3 80 C-2.01 80 -1.02 80 0 80 C0 78.68 0 77.36 0 76 C0.66 76 1.32 76 2 76 C1.505 44.32 1.505 44.32 1 12 C0.67 12 0.34 12 0 12 C0 8.04 0 4.08 0 0 Z " fill="#9AA2F0" transform="translate(169,68)"/>
<path d="M0 0 C2.73883355 1.59029045 2.94967699 2.83465297 3.875 5.875 C4.02405268 9.60131711 3.25133987 11.08159647 1 14 C-2.12860495 15.56430248 -4.55602925 15.35627284 -8 15 C-10.5 12.9375 -10.5 12.9375 -12 10 C-11.94021398 6.53241058 -11.60965977 4.11173251 -9.9375 1.0625 C-6.74841596 -0.68635254 -3.54329495 -0.53260383 0 0 Z " fill="#6C79F7" transform="translate(169,12)"/>
<path d="M0 0 C0.33 0 0.66 0 1 0 C1 2.64 1 5.28 1 8 C15.85 8 30.7 8 46 8 C46 8.33 46 8.66 46 9 C40.77086572 10.07483628 35.75493201 10.12930634 30.4453125 10.09765625 C29.54376434 10.0962413 28.64221619 10.09482635 27.71334839 10.09336853 C24.850531 10.0877974 21.98779352 10.07525026 19.125 10.0625 C17.17708447 10.05748127 15.2291677 10.05291901 13.28125 10.04882812 C8.52080282 10.03783742 3.76041493 10.02059277 -1 10 C-1.02689216 8.52093108 -1.04634621 7.04172517 -1.0625 5.5625 C-1.07410156 4.73878906 -1.08570312 3.91507812 -1.09765625 3.06640625 C-1 1 -1 1 0 0 Z " fill="#9CA5F0" transform="translate(24,73)"/>
<path d="M0 0 C-0.99 0 -1.98 0 -3 0 C-3 0.66 -3 1.32 -3 2 C-5.9826906 3.52448631 -8.818202 4.93940067 -12 6 C-12 7.98 -12 9.96 -12 12 C-14 13 -14 13 -15.875 12.4375 C-18.00013159 11.83300818 -18.00013159 11.83300818 -20.0625 12.5625 C-22.76249251 14.56572025 -23.6787731 16.96117814 -25 20 C-25.66 20 -26.32 20 -27 20 C-24.85490529 11.80963839 -20.18061013 7.69291905 -13.27734375 3.328125 C-4.31502716 -1.89861195 -4.31502716 -1.89861195 0 0 Z " fill="#727CF3" transform="translate(131,90)"/>
<path d="M0 0 C1.02158203 0.00322266 2.04316406 0.00644531 3.09570312 0.00976562 C4.15080078 0.01814453 5.20589844 0.02652344 6.29296875 0.03515625 C7.36740234 0.03966797 8.44183594 0.04417969 9.54882812 0.04882812 C12.19276558 0.06057896 14.83658827 0.07700838 17.48046875 0.09765625 C17.48046875 0.42765625 17.48046875 0.75765625 17.48046875 1.09765625 C5.5812615 3.26277516 5.5812615 3.26277516 0.73046875 2.53515625 C-3.1985616 2.00624832 -5.46101233 2.90071942 -9.11328125 4.2578125 C-14.44602447 6.1190784 -20.00654863 7.86382917 -25.51953125 6.09765625 C-23.12492537 5.28138179 -20.72896599 4.4695398 -18.33203125 3.66015625 C-17.65849609 3.43005859 -16.98496094 3.19996094 -16.29101562 2.96289062 C-10.72856511 1.09065118 -5.86980028 -0.03279218 0 0 Z " fill="#8D95EE" transform="translate(91.51953125,11.90234375)"/>
<path d="M0 0 C1 3 1 3 -0.625 6.375 C-2.67371516 9.72550291 -5.02290602 12.41462892 -8 15 C-8.66 15 -9.32 15 -10 15 C-9.67 13.35 -9.34 11.7 -9 10 C-8.34 10 -7.68 10 -7 10 C-6.34 8.68 -5.68 7.36 -5 6 C-4.01 6 -3.02 6 -2 6 C-2 4.68 -2 3.36 -2 2 C-1.34 2 -0.68 2 0 2 C0 1.34 0 0.68 0 0 Z " fill="#858DF0" transform="translate(171,142)"/>
<path d="M0 0 C7.25398658 0.47567125 13.26812223 2.29466594 20 5 C15.93812384 6.63936904 12.33508236 5.31657878 8.3125 4.1875 C7.62349609 4.00896484 6.93449219 3.83042969 6.22460938 3.64648438 C4.46282106 3.16662659 2.72805182 2.58991395 1 2 C0.67 1.34 0.34 0.68 0 0 Z " fill="#919AEC" transform="translate(110,13)"/>
<path d="M0 0 C2.31 0 4.62 0 7 0 C7 1.98 7 3.96 7 6 C6.67 4.68 6.34 3.36 6 2 C4.02940862 2.10575902 4.02940862 2.10575902 2 3 C0.85706445 5.31315325 0.85706445 5.31315325 0.25 8.0625 C0.00765625 8.98160156 -0.2346875 9.90070312 -0.484375 10.84765625 C-0.65453125 11.55792969 -0.8246875 12.26820312 -1 13 C-1.33 13 -1.66 13 -2 13 C-1.85769192 11.58297487 -1.71099254 10.1663904 -1.5625 8.75 C-1.48128906 7.96109375 -1.40007812 7.1721875 -1.31640625 6.359375 C-1.02365007 4.17635361 -0.57935581 2.1226818 0 0 Z " fill="#969DF2" transform="translate(94,48)"/>
<path d="M0 0 C0.66 0 1.32 0 2 0 C3.10228696 4.40914783 3.07654536 8.48382401 3 13 C2.01 12.67 1.02 12.34 0 12 C0 8.04 0 4.08 0 0 Z " fill="#808BEC" transform="translate(169,68)"/>
<path d="M0 0 C-0.99 0 -1.98 0 -3 0 C-3 0.66 -3 1.32 -3 2 C-5.75 3.625 -5.75 3.625 -9 5 C-11.203125 4.0859375 -11.203125 4.0859375 -13 3 C-11.5903653 2.29819469 -10.17192359 1.61406042 -8.75 0.9375 C-7.96109375 0.55464844 -7.1721875 0.17179687 -6.359375 -0.22265625 C-3.74006478 -1.08564091 -2.55144824 -0.93045933 0 0 Z " fill="#838DF0" transform="translate(131,90)"/>
<path d="M0 0 C4.95 0 9.9 0 15 0 C15 0.33 15 0.66 15 1 C12.87630763 1.36192504 10.7509887 1.71431747 8.625 2.0625 C6.84996094 2.35833984 6.84996094 2.35833984 5.0390625 2.66015625 C2 3 2 3 0 2 C0 1.34 0 0.68 0 0 Z " fill="#858DF6" transform="translate(94,12)"/>
<path d="M0 0 C0.66 0.33 1.32 0.66 2 1 C1 4 1 4 -1.9375 5.75 C-3.4534375 6.36875 -3.4534375 6.36875 -5 7 C-5.66 6.67 -6.32 6.34 -7 6 C-4.69 4.02 -2.38 2.04 0 0 Z " fill="#9099EE" transform="translate(116,94)"/>
<path d="M0 0 C0.66 0 1.32 0 2 0 C1.75 2.875 1.75 2.875 1 6 C-1.0625 7.375 -1.0625 7.375 -3 8 C-2.67 6.35 -2.34 4.7 -2 3 C-1.34 3 -0.68 3 0 3 C0 2.01 0 1.02 0 0 Z " fill="#8C94EC" transform="translate(171,18)"/>
<path d="M0 0 C0.66 0.33 1.32 0.66 2 1 C0.68 2.65 -0.64 4.3 -2 6 C-3.32 5.34 -4.64 4.68 -6 4 C-4.02 2.68 -2.04 1.36 0 0 Z " fill="#9098F3" transform="translate(60,21)"/>
<path d="M0 0 C6.875 3.75 6.875 3.75 8 6 C7.05125 5.814375 6.1025 5.62875 5.125 5.4375 C2.10131207 4.71313368 2.10131207 4.71313368 0 6 C0 4.02 0 2.04 0 0 Z " fill="#919AF3" transform="translate(140,25)"/>
<path d="M0 0 C2.01822917 0.06510417 4.03645833 0.13020833 6.0546875 0.1953125 C6.0546875 1.1853125 6.0546875 2.1753125 6.0546875 3.1953125 C4.9615625 3.0303125 3.8684375 2.8653125 2.7421875 2.6953125 C-0.82057123 2.12813066 -0.82057123 2.12813066 -3.9453125 2.1953125 C-1.9453125 0.1953125 -1.9453125 0.1953125 0 0 Z " fill="#8A93EF" transform="translate(162.9453125,11.8046875)"/>
<path d="M0 0 C0.66 0.99 1.32 1.98 2 3 C-4.75 2.25 -4.75 2.25 -7 0 C-3.86559131 -1.0448029 -2.97903963 -1.15317663 0 0 Z " fill="#8A92F3" transform="translate(41,157)"/>
<path d="M0 0 C0 0.99 0 1.98 0 3 C-1.65 3 -3.3 3 -5 3 C-5.66 4.32 -6.32 5.64 -7 7 C-7.66 6.34 -8.32 5.68 -9 5 C-8.01 4.67 -7.02 4.34 -6 4 C-6 3.34 -6 2.68 -6 2 C-2.25 0 -2.25 0 0 0 Z " fill="#6E7AF1" transform="translate(134,88)"/>
<path d="M0 0 C4 4.625 4 4.625 4 8 C2.35 6.35 0.7 4.7 -1 3 C-0.67 2.01 -0.34 1.02 0 0 Z " fill="#929AEC" transform="translate(26,146)"/>
</svg>
